<svg width="36" height="35" viewBox="0 0 36 35" fill="none" xmlns="http://www.w3.org/2000/svg">
<g clip-path="url(#clip0_8_287)">
<path d="M5.62756 34.4954H17.0436V22.4094H12.942V18.425H17.0436V13.4446C17.0436 10.6983 19.3435 8.46411 22.1705 8.46411H27.2975V12.4485H23.1959C22.0651 12.4485 21.1451 13.3421 21.1451 14.4407V18.425H27.1124L26.4288 22.4094H21.1451V34.4954H30.3737C33.2007 34.4954 35.5006 32.2612 35.5006 29.5149V5.47583C35.5006 2.72957 33.2007 0.495361 30.3737 0.495361H5.62756C2.80053 0.495361 0.50061 2.72957 0.50061 5.47583V29.5149C0.50061 32.2612 2.80053 34.4954 5.62756 34.4954ZM2.55139 5.47583C2.55139 3.82812 3.9314 2.48755 5.62756 2.48755H30.3737C32.0698 2.48755 33.4498 3.82812 33.4498 5.47583V29.5149C33.4498 31.1626 32.0698 32.5032 30.3737 32.5032H23.1959V24.4016H28.1661L29.5333 16.4329H23.1959V14.4407H29.3483V6.47192H22.1705C18.2126 6.47192 14.9928 9.59976 14.9928 13.4446V16.4329H10.8912V24.4016H14.9928V32.5032H5.62756C3.9314 32.5032 2.55139 31.1626 2.55139 29.5149V5.47583Z" fill="#ECECEC"/>
</g>
<defs>
<clipPath id="clip0_8_287">
<rect width="35" height="34" fill="white" transform="translate(0.50061 0.495361)"/>
</clipPath>
</defs>
</svg>
