<svg width="35" height="35" viewBox="0 0 35 35" fill="none" xmlns="http://www.w3.org/2000/svg">
<g clip-path="url(#clip0_8_289)">
<path d="M24.8131 33.4329H9.93811C5.26311 33.4329 1.43811 29.6079 1.43811 24.9329V10.0579C1.43811 5.38286 5.26311 1.55786 9.93811 1.55786H24.8131C29.4881 1.55786 33.3131 5.38286 33.3131 10.0579V24.9329C33.3131 29.6079 29.4881 33.4329 24.8131 33.4329Z" stroke="#ECECEC" stroke-width="2" stroke-miterlimit="10" stroke-linecap="round" stroke-linejoin="round"/>
<path d="M17.3756 24.9329C21.4832 24.9329 24.8131 21.603 24.8131 17.4954C24.8131 13.3877 21.4832 10.0579 17.3756 10.0579C13.268 10.0579 9.93811 13.3877 9.93811 17.4954C9.93811 21.603 13.268 24.9329 17.3756 24.9329Z" stroke="#ECECEC" stroke-width="2" stroke-miterlimit="10" stroke-linecap="round" stroke-linejoin="round"/>
<path d="M25.8756 8.99536C26.4624 8.99536 26.9381 8.51966 26.9381 7.93286C26.9381 7.34606 26.4624 6.87036 25.8756 6.87036C25.2888 6.87036 24.8131 7.34606 24.8131 7.93286C24.8131 8.51966 25.2888 8.99536 25.8756 8.99536Z" stroke="#ECECEC" stroke-width="2" stroke-miterlimit="10" stroke-linecap="round" stroke-linejoin="round"/>
</g>
<defs>
<clipPath id="clip0_8_289">
<rect width="34" height="34" fill="white" transform="translate(0.37561 0.495361)"/>
</clipPath>
</defs>
</svg>
