<svg width="231" height="73" viewBox="0 0 231 73" fill="none" xmlns="http://www.w3.org/2000/svg">
<path d="M4.224 61V27.4H19.056C21.36 27.4 23.312 27.736 24.912 28.408C26.512 29.048 27.712 29.992 28.512 31.24C29.344 32.456 29.76 33.928 29.76 35.656C29.76 37.576 29.28 39.192 28.32 40.504C27.392 41.816 26.032 42.696 24.24 43.144L24.144 42.232C25.648 42.552 26.944 43.112 28.032 43.912C29.152 44.712 30.016 45.704 30.624 46.888C31.232 48.04 31.536 49.352 31.536 50.824C31.536 52.52 31.248 54.008 30.672 55.288C30.096 56.536 29.264 57.592 28.176 58.456C27.088 59.32 25.808 59.96 24.336 60.376C22.896 60.792 21.296 61 19.536 61H4.224ZM11.904 54.184H19.248C20.144 54.184 20.896 54.04 21.504 53.752C22.144 53.464 22.64 53.048 22.992 52.504C23.344 51.928 23.52 51.24 23.52 50.44C23.52 49.704 23.328 49.08 22.944 48.568C22.592 48.056 22.08 47.672 21.408 47.416C20.736 47.128 19.936 46.984 19.008 46.984H11.904V54.184ZM11.904 40.888H17.904C18.736 40.888 19.44 40.76 20.016 40.504C20.624 40.216 21.072 39.832 21.36 39.352C21.68 38.84 21.84 38.232 21.84 37.528C21.84 36.504 21.488 35.704 20.784 35.128C20.08 34.52 19.024 34.216 17.616 34.216H11.904V40.888ZM46.4254 61.432C44.2814 61.432 42.3614 60.872 40.6654 59.752C39.0014 58.6 37.6734 57.032 36.6814 55.048C35.6894 53.032 35.1934 50.76 35.1934 48.232C35.1934 45.64 35.6894 43.352 36.6814 41.368C37.6734 39.384 39.0334 37.832 40.7614 36.712C42.4894 35.56 44.4574 34.984 46.6654 34.984C47.8814 34.984 48.9854 35.16 49.9774 35.512C51.0014 35.864 51.8974 36.36 52.6654 37C53.4334 37.608 54.0894 38.328 54.6334 39.16C55.1774 39.96 55.5774 40.824 55.8334 41.752L54.2494 41.56V35.512H61.8814V61H54.1054V54.856L55.8334 54.808C55.5774 55.704 55.1614 56.552 54.5854 57.352C54.0094 58.152 53.3054 58.856 52.4734 59.464C51.6414 60.072 50.7134 60.552 49.6894 60.904C48.6654 61.256 47.5774 61.432 46.4254 61.432ZM48.5374 54.952C49.7214 54.952 50.7454 54.68 51.6094 54.136C52.4734 53.592 53.1454 52.824 53.6254 51.832C54.1054 50.808 54.3454 49.608 54.3454 48.232C54.3454 46.856 54.1054 45.672 53.6254 44.68C53.1454 43.656 52.4734 42.872 51.6094 42.328C50.7454 41.752 49.7214 41.464 48.5374 41.464C47.3854 41.464 46.3774 41.752 45.5134 42.328C44.6814 42.872 44.0254 43.656 43.5454 44.68C43.0654 45.672 42.8254 46.856 42.8254 48.232C42.8254 49.608 43.0654 50.808 43.5454 51.832C44.0254 52.824 44.6814 53.592 45.5134 54.136C46.3774 54.68 47.3854 54.952 48.5374 54.952ZM68.658 61V35.512H75.954L76.29 43.816L74.85 42.232C75.234 40.856 75.858 39.624 76.722 38.536C77.618 37.448 78.658 36.584 79.842 35.944C81.026 35.304 82.29 34.984 83.634 34.984C84.21 34.984 84.738 35.032 85.218 35.128C85.73 35.224 86.194 35.336 86.61 35.464L84.498 43.96C84.146 43.736 83.666 43.56 83.058 43.432C82.482 43.272 81.874 43.192 81.234 43.192C80.53 43.192 79.874 43.32 79.266 43.576C78.658 43.8 78.146 44.136 77.73 44.584C77.314 45.032 76.978 45.56 76.722 46.168C76.498 46.776 76.386 47.464 76.386 48.232V61H68.658ZM105.814 61.528C104.662 61.528 103.558 61.368 102.502 61.048C101.446 60.728 100.486 60.296 99.6218 59.752C98.7898 59.208 98.0858 58.584 97.5098 57.88C96.9658 57.144 96.5978 56.392 96.4058 55.624L98.0858 55.048L97.6538 60.952H90.5018V25.48H98.2298V41.608L96.6458 41.032C96.8378 40.2 97.2058 39.432 97.7498 38.728C98.2938 37.992 98.9818 37.352 99.8138 36.808C100.646 36.232 101.558 35.784 102.55 35.464C103.542 35.144 104.566 34.984 105.622 34.984C107.83 34.984 109.782 35.56 111.478 36.712C113.206 37.832 114.566 39.4 115.558 41.416C116.55 43.4 117.046 45.672 117.046 48.232C117.046 50.824 116.55 53.128 115.558 55.144C114.598 57.128 113.27 58.696 111.574 59.848C109.878 60.968 107.958 61.528 105.814 61.528ZM103.798 55.048C104.95 55.048 105.958 54.76 106.822 54.184C107.686 53.608 108.342 52.824 108.79 51.832C109.27 50.808 109.51 49.608 109.51 48.232C109.51 46.888 109.27 45.704 108.79 44.68C108.342 43.656 107.686 42.872 106.822 42.328C105.958 41.784 104.95 41.512 103.798 41.512C102.614 41.512 101.59 41.784 100.726 42.328C99.8618 42.872 99.1898 43.656 98.7098 44.68C98.2298 45.704 97.9898 46.888 97.9898 48.232C97.9898 49.608 98.2298 50.808 98.7098 51.832C99.1898 52.824 99.8618 53.608 100.726 54.184C101.59 54.76 102.614 55.048 103.798 55.048ZM134.096 61.48C131.44 61.48 129.072 60.904 126.992 59.752C124.944 58.6 123.312 57.032 122.096 55.048C120.912 53.064 120.32 50.792 120.32 48.232C120.32 45.672 120.912 43.4 122.096 41.416C123.312 39.432 124.944 37.864 126.992 36.712C129.072 35.56 131.44 34.984 134.096 34.984C136.752 34.984 139.104 35.56 141.152 36.712C143.232 37.864 144.864 39.432 146.048 41.416C147.232 43.4 147.824 45.672 147.824 48.232C147.824 50.792 147.232 53.064 146.048 55.048C144.864 57.032 143.232 58.6 141.152 59.752C139.104 60.904 136.752 61.48 134.096 61.48ZM134.096 54.856C135.248 54.856 136.272 54.568 137.168 53.992C138.064 53.416 138.768 52.632 139.28 51.64C139.792 50.648 140.032 49.512 140 48.232C140.032 46.952 139.792 45.816 139.28 44.824C138.768 43.8 138.064 43 137.168 42.424C136.272 41.848 135.248 41.56 134.096 41.56C132.944 41.56 131.904 41.848 130.976 42.424C130.08 43 129.376 43.8 128.864 44.824C128.352 45.816 128.112 46.952 128.144 48.232C128.112 49.512 128.352 50.648 128.864 51.64C129.376 52.632 130.08 53.416 130.976 53.992C131.904 54.568 132.944 54.856 134.096 54.856ZM152.846 61V35.512H160.142L160.478 43.816L159.038 42.232C159.422 40.856 160.046 39.624 160.91 38.536C161.806 37.448 162.846 36.584 164.03 35.944C165.214 35.304 166.478 34.984 167.822 34.984C168.398 34.984 168.926 35.032 169.406 35.128C169.918 35.224 170.382 35.336 170.798 35.464L168.686 43.96C168.334 43.736 167.854 43.56 167.246 43.432C166.67 43.272 166.062 43.192 165.422 43.192C164.718 43.192 164.062 43.32 163.454 43.576C162.846 43.8 162.334 44.136 161.918 44.584C161.502 45.032 161.166 45.56 160.91 46.168C160.686 46.776 160.574 47.464 160.574 48.232V61H152.846ZM175.121 61V35.512H182.801V61H175.121ZM178.961 30.472C177.521 30.472 176.385 30.136 175.553 29.464C174.753 28.76 174.353 27.768 174.353 26.488C174.353 25.336 174.769 24.392 175.601 23.656C176.433 22.92 177.553 22.552 178.961 22.552C180.401 22.552 181.521 22.904 182.321 23.608C183.121 24.28 183.521 25.24 183.521 26.488C183.521 27.672 183.105 28.632 182.273 29.368C181.473 30.104 180.369 30.472 178.961 30.472ZM199.425 61.432C197.281 61.432 195.361 60.872 193.665 59.752C192.001 58.6 190.673 57.032 189.681 55.048C188.689 53.032 188.193 50.76 188.193 48.232C188.193 45.64 188.689 43.352 189.681 41.368C190.673 39.384 192.033 37.832 193.761 36.712C195.489 35.56 197.457 34.984 199.665 34.984C200.881 34.984 201.985 35.16 202.977 35.512C204.001 35.864 204.897 36.36 205.665 37C206.433 37.608 207.089 38.328 207.633 39.16C208.177 39.96 208.577 40.824 208.833 41.752L207.249 41.56V35.512H214.881V61H207.105V54.856L208.833 54.808C208.577 55.704 208.161 56.552 207.585 57.352C207.009 58.152 206.305 58.856 205.473 59.464C204.641 60.072 203.713 60.552 202.689 60.904C201.665 61.256 200.577 61.432 199.425 61.432ZM201.537 54.952C202.721 54.952 203.745 54.68 204.609 54.136C205.473 53.592 206.145 52.824 206.625 51.832C207.105 50.808 207.345 49.608 207.345 48.232C207.345 46.856 207.105 45.672 206.625 44.68C206.145 43.656 205.473 42.872 204.609 42.328C203.745 41.752 202.721 41.464 201.537 41.464C200.385 41.464 199.377 41.752 198.513 42.328C197.681 42.872 197.025 43.656 196.545 44.68C196.065 45.672 195.825 46.856 195.825 48.232C195.825 49.608 196.065 50.808 196.545 51.832C197.025 52.824 197.681 53.592 198.513 54.136C199.377 54.68 200.385 54.952 201.537 54.952Z" fill="#FBFBFB"/>
<path d="M224.394 61.528C223.082 61.528 222.058 61.16 221.322 60.424C220.618 59.688 220.266 58.632 220.266 57.256C220.266 55.976 220.65 54.936 221.418 54.136C222.186 53.336 223.178 52.936 224.394 52.936C225.706 52.936 226.73 53.32 227.466 54.088C228.202 54.824 228.57 55.88 228.57 57.256C228.57 58.504 228.186 59.528 227.418 60.328C226.65 61.128 225.642 61.528 224.394 61.528Z" fill="#A60A27"/>
<path d="M5.544 18.12C5.192 18.12 4.888 17.992 4.632 17.736C4.392 17.48 4.272 17.168 4.272 16.8C4.272 16.416 4.392 16.104 4.632 15.864C4.888 15.624 5.192 15.504 5.544 15.504C5.896 15.504 6.192 15.624 6.432 15.864C6.688 16.104 6.816 16.416 6.816 16.8C6.816 17.168 6.688 17.48 6.432 17.736C6.192 17.992 5.896 18.12 5.544 18.12Z" fill="#1CD63D"/>
<path d="M26.7099 18.144C25.4299 18.144 24.2459 17.936 23.1579 17.52C22.0859 17.088 21.1499 16.488 20.3499 15.72C19.5659 14.952 18.9499 14.048 18.5019 13.008C18.0699 11.968 17.8539 10.832 17.8539 9.6C17.8539 8.368 18.0699 7.232 18.5019 6.192C18.9499 5.152 19.5739 4.248 20.3739 3.48C21.1739 2.712 22.1099 2.12 23.1819 1.704C24.2699 1.272 25.4539 1.056 26.7339 1.056C28.0139 1.056 29.1819 1.256 30.2379 1.656C31.3099 2.056 32.2219 2.664 32.9739 3.48L31.8699 4.608C31.1659 3.904 30.3899 3.4 29.5419 3.096C28.6939 2.792 27.7819 2.64 26.8059 2.64C25.7659 2.64 24.8059 2.816 23.9259 3.168C23.0619 3.504 22.3019 3.992 21.6459 4.632C21.0059 5.256 20.5019 5.992 20.1339 6.84C19.7819 7.672 19.6059 8.592 19.6059 9.6C19.6059 10.592 19.7819 11.512 20.1339 12.36C20.5019 13.208 21.0059 13.952 21.6459 14.592C22.3019 15.216 23.0619 15.704 23.9259 16.056C24.8059 16.392 25.7579 16.56 26.7819 16.56C27.7419 16.56 28.6459 16.416 29.4939 16.128C30.3579 15.84 31.1499 15.352 31.8699 14.664L32.8779 16.008C32.0779 16.712 31.1419 17.248 30.0699 17.616C28.9979 17.968 27.8779 18.144 26.7099 18.144ZM31.1739 15.792V9.6H32.8779V16.008L31.1739 15.792ZM51.2724 18.12C50.2004 18.12 49.2644 17.92 48.4644 17.52C47.6644 17.12 47.0404 16.52 46.5924 15.72C46.1604 14.92 45.9444 13.92 45.9444 12.72V5.4H47.6484V12.528C47.6484 13.872 47.9764 14.888 48.6324 15.576C49.3044 16.248 50.2404 16.584 51.4404 16.584C52.3204 16.584 53.0804 16.408 53.7204 16.056C54.3764 15.688 54.8724 15.16 55.2084 14.472C55.5604 13.784 55.7364 12.96 55.7364 12V5.4H57.4404V18H55.8084V14.544L56.0724 15.168C55.6724 16.096 55.0484 16.824 54.2004 17.352C53.3684 17.864 52.3924 18.12 51.2724 18.12ZM70.7094 18V5.4H72.4134V18H70.7094ZM71.5734 2.616C71.2214 2.616 70.9254 2.496 70.6854 2.256C70.4454 2.016 70.3254 1.728 70.3254 1.392C70.3254 1.056 70.4454 0.775999 70.6854 0.551999C70.9254 0.311999 71.2214 0.191999 71.5734 0.191999C71.9254 0.191999 72.2214 0.303999 72.4614 0.527999C72.7014 0.751999 72.8214 1.032 72.8214 1.368C72.8214 1.72 72.7014 2.016 72.4614 2.256C72.2374 2.496 71.9414 2.616 71.5734 2.616ZM85.6748 18V0.191999H87.3788V18H85.6748ZM105.656 18.12C104.456 18.12 103.376 17.848 102.416 17.304C101.472 16.76 100.728 16.008 100.184 15.048C99.6401 14.072 99.3681 12.952 99.3681 11.688C99.3681 10.408 99.6401 9.288 100.184 8.328C100.728 7.368 101.472 6.624 102.416 6.096C103.376 5.552 104.456 5.28 105.656 5.28C106.76 5.28 107.744 5.528 108.608 6.024C109.488 6.52 110.184 7.248 110.696 8.208C111.224 9.152 111.488 10.312 111.488 11.688C111.488 13.048 111.232 14.208 110.72 15.168C110.208 16.128 109.512 16.864 108.632 17.376C107.768 17.872 106.776 18.12 105.656 18.12ZM105.776 16.608C106.672 16.608 107.472 16.408 108.176 16.008C108.896 15.592 109.456 15.016 109.856 14.28C110.272 13.528 110.48 12.664 110.48 11.688C110.48 10.696 110.272 9.832 109.856 9.096C109.456 8.36 108.896 7.792 108.176 7.392C107.472 6.976 106.672 6.768 105.776 6.768C104.896 6.768 104.104 6.976 103.4 7.392C102.696 7.792 102.136 8.36 101.72 9.096C101.304 9.832 101.096 10.696 101.096 11.688C101.096 12.664 101.304 13.528 101.72 14.28C102.136 15.016 102.696 15.592 103.4 16.008C104.104 16.408 104.896 16.608 105.776 16.608ZM110.528 18V14.208L110.696 11.664L110.456 9.12V0.191999H112.16V18H110.528Z" fill="#FBFBFB"/>
</svg>
