<svg width="258" height="74" viewBox="0 0 258 74" fill="none" xmlns="http://www.w3.org/2000/svg">
<path d="M16.087 61.9175C13.879 61.9175 11.879 61.6615 10.087 61.1495C8.32696 60.6055 6.75896 59.8375 5.38296 58.8455C4.00696 57.8215 2.77496 56.6215 1.68696 55.2455L6.63096 49.6295C8.23096 51.7735 9.83096 53.2135 11.431 53.9495C13.063 54.6855 14.743 55.0535 16.471 55.0535C17.335 55.0535 18.119 54.9415 18.823 54.7175C19.527 54.4935 20.071 54.1735 20.455 53.7575C20.839 53.3095 21.031 52.7655 21.031 52.1255C21.031 51.6455 20.903 51.2135 20.647 50.8295C20.423 50.4455 20.103 50.1095 19.687 49.8215C19.271 49.5335 18.775 49.2775 18.199 49.0535C17.623 48.7975 17.015 48.5895 16.375 48.4295C15.735 48.2375 15.079 48.0775 14.407 47.9495C12.551 47.5335 10.935 47.0215 9.55896 46.4135C8.18296 45.8055 7.03096 45.0695 6.10296 44.2055C5.20696 43.3095 4.53496 42.3015 4.08696 41.1815C3.63896 40.0295 3.41496 38.7495 3.41496 37.3415C3.41496 35.8375 3.75096 34.4615 4.42296 33.2135C5.12696 31.9335 6.05496 30.8455 7.20696 29.9495C8.39096 29.0215 9.75096 28.3175 11.287 27.8375C12.823 27.3255 14.423 27.0695 16.087 27.0695C18.295 27.0695 20.183 27.3095 21.751 27.7895C23.351 28.2375 24.711 28.8935 25.831 29.7575C26.983 30.6215 27.959 31.6615 28.759 32.8775L23.719 37.7255C23.047 36.8935 22.311 36.2055 21.511 35.6615C20.743 35.1175 19.911 34.7015 19.015 34.4135C18.151 34.1255 17.255 33.9815 16.327 33.9815C15.367 33.9815 14.535 34.1095 13.831 34.3655C13.159 34.5895 12.631 34.9255 12.247 35.3735C11.863 35.7895 11.671 36.3015 11.671 36.9095C11.671 37.4535 11.831 37.9175 12.151 38.3015C12.471 38.6855 12.903 39.0375 13.447 39.3575C13.991 39.6455 14.615 39.9015 15.319 40.1255C16.023 40.3175 16.759 40.4775 17.527 40.6055C19.287 40.9575 20.871 41.4215 22.279 41.9975C23.719 42.5735 24.951 43.2775 25.975 44.1095C27.031 44.9415 27.831 45.9335 28.375 47.0855C28.951 48.2055 29.239 49.5175 29.239 51.0215C29.239 53.3575 28.663 55.3415 27.511 56.9735C26.391 58.5735 24.839 59.8055 22.855 60.6695C20.903 61.5015 18.647 61.9175 16.087 61.9175ZM46.5568 61.9175C43.9008 61.9175 41.5328 61.3415 39.4528 60.1895C37.4048 59.0375 35.7728 57.4695 34.5568 55.4855C33.3728 53.5015 32.7808 51.2295 32.7808 48.6695C32.7808 46.1095 33.3728 43.8375 34.5568 41.8535C35.7728 39.8695 37.4048 38.3015 39.4528 37.1495C41.5328 35.9975 43.9008 35.4215 46.5568 35.4215C49.2128 35.4215 51.5648 35.9975 53.6128 37.1495C55.6928 38.3015 57.3248 39.8695 58.5088 41.8535C59.6928 43.8375 60.2848 46.1095 60.2848 48.6695C60.2848 51.2295 59.6928 53.5015 58.5088 55.4855C57.3248 57.4695 55.6928 59.0375 53.6128 60.1895C51.5648 61.3415 49.2128 61.9175 46.5568 61.9175ZM46.5568 55.2935C47.7088 55.2935 48.7328 55.0055 49.6288 54.4295C50.5248 53.8535 51.2288 53.0695 51.7408 52.0775C52.2528 51.0855 52.4928 49.9495 52.4608 48.6695C52.4928 47.3895 52.2528 46.2535 51.7408 45.2615C51.2288 44.2375 50.5248 43.4375 49.6288 42.8615C48.7328 42.2855 47.7088 41.9975 46.5568 41.9975C45.4048 41.9975 44.3648 42.2855 43.4368 42.8615C42.5408 43.4375 41.8368 44.2375 41.3248 45.2615C40.8128 46.2535 40.5728 47.3895 40.6048 48.6695C40.5728 49.9495 40.8128 51.0855 41.3248 52.0775C41.8368 53.0695 42.5408 53.8535 43.4368 54.4295C44.3648 55.0055 45.4048 55.2935 46.5568 55.2935ZM72.4277 61.4375L61.7717 35.9495H70.2677L76.6037 55.0055L74.7317 55.1975L81.2597 35.9495H89.6597L78.4757 61.4375H72.4277ZM105.107 61.9175C102.291 61.9175 99.8431 61.3575 97.7631 60.2375C95.6831 59.0855 94.0671 57.5335 92.9151 55.5815C91.7631 53.5975 91.1871 51.3415 91.1871 48.8135C91.1871 46.8615 91.5071 45.0695 92.1471 43.4375C92.7871 41.8055 93.6831 40.3975 94.8351 39.2135C95.9871 37.9975 97.3471 37.0695 98.9151 36.4295C100.515 35.7575 102.259 35.4215 104.147 35.4215C105.939 35.4215 107.571 35.7415 109.043 36.3815C110.547 37.0215 111.843 37.9175 112.931 39.0695C114.019 40.2215 114.851 41.5815 115.427 43.1495C116.003 44.7175 116.259 46.4295 116.195 48.2855L116.147 50.3495H95.8431L94.7391 46.0295H109.907L109.091 46.9415V45.9815C109.027 45.1815 108.771 44.4775 108.323 43.8695C107.907 43.2295 107.347 42.7335 106.643 42.3815C105.939 42.0295 105.139 41.8535 104.243 41.8535C102.995 41.8535 101.923 42.1095 101.027 42.6215C100.163 43.1015 99.5071 43.8215 99.0591 44.7815C98.6111 45.7095 98.3871 46.8615 98.3871 48.2375C98.3871 49.6455 98.6751 50.8775 99.2511 51.9335C99.8591 52.9575 100.723 53.7575 101.843 54.3335C102.995 54.9095 104.355 55.1975 105.923 55.1975C107.011 55.1975 107.971 55.0375 108.803 54.7175C109.667 54.3975 110.595 53.8535 111.587 53.0855L115.187 58.1735C114.195 59.0375 113.139 59.7415 112.019 60.2855C110.899 60.8295 109.747 61.2295 108.563 61.4855C107.411 61.7735 106.259 61.9175 105.107 61.9175ZM121.088 61.4375V35.9495H128.384L128.72 44.2535L127.28 42.6695C127.664 41.2935 128.288 40.0615 129.152 38.9735C130.048 37.8855 131.088 37.0215 132.272 36.3815C133.456 35.7415 134.72 35.4215 136.064 35.4215C136.64 35.4215 137.168 35.4695 137.648 35.5655C138.16 35.6615 138.624 35.7735 139.04 35.9015L136.928 44.3975C136.576 44.1735 136.096 43.9975 135.488 43.8695C134.912 43.7095 134.304 43.6295 133.664 43.6295C132.96 43.6295 132.304 43.7575 131.696 44.0135C131.088 44.2375 130.576 44.5735 130.16 45.0215C129.744 45.4695 129.408 45.9975 129.152 46.6055C128.928 47.2135 128.816 47.9015 128.816 48.6695V61.4375H121.088ZM153.998 61.9175C151.182 61.9175 148.734 61.3575 146.654 60.2375C144.574 59.0855 142.958 57.5335 141.806 55.5815C140.654 53.5975 140.078 51.3415 140.078 48.8135C140.078 46.8615 140.398 45.0695 141.038 43.4375C141.678 41.8055 142.574 40.3975 143.726 39.2135C144.878 37.9975 146.238 37.0695 147.806 36.4295C149.406 35.7575 151.15 35.4215 153.038 35.4215C154.83 35.4215 156.462 35.7415 157.934 36.3815C159.438 37.0215 160.734 37.9175 161.822 39.0695C162.91 40.2215 163.742 41.5815 164.318 43.1495C164.894 44.7175 165.15 46.4295 165.086 48.2855L165.038 50.3495H144.734L143.63 46.0295H158.798L157.982 46.9415V45.9815C157.918 45.1815 157.662 44.4775 157.214 43.8695C156.798 43.2295 156.238 42.7335 155.534 42.3815C154.83 42.0295 154.03 41.8535 153.134 41.8535C151.886 41.8535 150.814 42.1095 149.918 42.6215C149.054 43.1015 148.398 43.8215 147.95 44.7815C147.502 45.7095 147.278 46.8615 147.278 48.2375C147.278 49.6455 147.566 50.8775 148.142 51.9335C148.75 52.9575 149.614 53.7575 150.734 54.3335C151.886 54.9095 153.246 55.1975 154.814 55.1975C155.902 55.1975 156.862 55.0375 157.694 54.7175C158.558 54.3975 159.486 53.8535 160.478 53.0855L164.078 58.1735C163.086 59.0375 162.03 59.7415 160.91 60.2855C159.79 60.8295 158.638 61.2295 157.454 61.4855C156.302 61.7735 155.15 61.9175 153.998 61.9175ZM170.411 61.4375V35.9495H178.091V61.4375H170.411ZM174.251 30.9095C172.811 30.9095 171.675 30.5735 170.843 29.9015C170.043 29.1975 169.643 28.2055 169.643 26.9255C169.643 25.7735 170.059 24.8295 170.891 24.0935C171.723 23.3575 172.843 22.9895 174.251 22.9895C175.691 22.9895 176.811 23.3415 177.611 24.0455C178.411 24.7175 178.811 25.6775 178.811 26.9255C178.811 28.1095 178.395 29.0695 177.563 29.8055C176.763 30.5415 175.659 30.9095 174.251 30.9095ZM196.971 72.4775C194.891 72.4775 192.811 72.1735 190.731 71.5655C188.683 70.9575 187.019 70.1735 185.739 69.2135L188.427 63.8375C189.099 64.2855 189.835 64.6695 190.635 64.9895C191.467 65.3415 192.331 65.6135 193.227 65.8055C194.123 65.9975 195.035 66.0935 195.963 66.0935C197.595 66.0935 198.923 65.8535 199.947 65.3735C200.971 64.8935 201.739 64.1575 202.251 63.1655C202.763 62.2055 203.019 60.9895 203.019 59.5175V55.2455L204.507 55.4855C204.283 56.5415 203.723 57.5015 202.827 58.3655C201.963 59.2295 200.891 59.9335 199.611 60.4775C198.331 60.9895 196.971 61.2455 195.531 61.2455C193.227 61.2455 191.163 60.7175 189.339 59.6615C187.547 58.5735 186.123 57.0855 185.067 55.1975C184.043 53.2775 183.531 51.0695 183.531 48.5735C183.531 46.0135 184.043 43.7575 185.067 41.8055C186.091 39.8215 187.499 38.2695 189.291 37.1495C191.083 35.9975 193.099 35.4215 195.339 35.4215C196.299 35.4215 197.211 35.5335 198.075 35.7575C198.971 35.9815 199.787 36.2855 200.523 36.6695C201.291 37.0215 201.963 37.4535 202.539 37.9655C203.147 38.4455 203.627 38.9735 203.979 39.5495C204.363 40.1255 204.619 40.7175 204.747 41.3255L203.163 41.7095L203.451 35.9495H210.747V59.3735C210.747 61.4535 210.427 63.2935 209.787 64.8935C209.179 66.5255 208.267 67.9015 207.051 69.0215C205.867 70.1735 204.427 71.0375 202.731 71.6135C201.035 72.1895 199.115 72.4775 196.971 72.4775ZM197.163 55.2935C198.411 55.2935 199.483 55.0215 200.379 54.4775C201.307 53.9015 202.011 53.1175 202.491 52.1255C203.003 51.1335 203.259 49.9655 203.259 48.6215C203.259 47.2775 203.003 46.1095 202.491 45.1175C202.011 44.0935 201.307 43.3095 200.379 42.7655C199.483 42.1895 198.411 41.9015 197.163 41.9015C195.947 41.9015 194.891 42.1895 193.995 42.7655C193.099 43.3095 192.395 44.0935 191.883 45.1175C191.403 46.1095 191.163 47.2775 191.163 48.6215C191.163 49.9655 191.403 51.1335 191.883 52.1255C192.395 53.1175 193.099 53.9015 193.995 54.4775C194.891 55.0215 195.947 55.2935 197.163 55.2935ZM217.416 61.4375V35.9495H224.712L224.952 41.1335L223.416 41.7095C223.768 40.5575 224.392 39.5175 225.288 38.5895C226.216 37.6295 227.32 36.8615 228.6 36.2855C229.88 35.7095 231.224 35.4215 232.632 35.4215C234.552 35.4215 236.168 35.8215 237.48 36.6215C238.792 37.3895 239.784 38.5575 240.456 40.1255C241.128 41.6615 241.464 43.5495 241.464 45.7895V61.4375H233.736V46.4135C233.736 45.3895 233.592 44.5415 233.304 43.8695C233.016 43.1975 232.568 42.7015 231.96 42.3815C231.384 42.0295 230.664 41.8695 229.8 41.9015C229.128 41.9015 228.504 42.0135 227.928 42.2375C227.352 42.4295 226.856 42.7335 226.44 43.1495C226.024 43.5335 225.688 43.9815 225.432 44.4935C225.208 45.0055 225.096 45.5655 225.096 46.1735V61.4375H221.304C220.408 61.4375 219.64 61.4375 219 61.4375C218.36 61.4375 217.832 61.4375 217.416 61.4375Z" fill="#FBFBFB"/>
<path d="M250.621 61.9655C249.309 61.9655 248.285 61.5975 247.549 60.8615C246.845 60.1255 246.493 59.0695 246.493 57.6935C246.493 56.4135 246.877 55.3735 247.645 54.5735C248.413 53.7735 249.405 53.3735 250.621 53.3735C251.933 53.3735 252.957 53.7575 253.693 54.5255C254.429 55.2615 254.797 56.3175 254.797 57.6935C254.797 58.9415 254.413 59.9655 253.645 60.7655C252.877 61.5655 251.869 61.9655 250.621 61.9655Z" fill="#A60A27"/>
<path d="M6.27096 18.62C5.91896 18.62 5.61496 18.492 5.35896 18.236C5.11896 17.98 4.99896 17.668 4.99896 17.3C4.99896 16.916 5.11896 16.604 5.35896 16.364C5.61496 16.124 5.91896 16.004 6.27096 16.004C6.62296 16.004 6.91896 16.124 7.15896 16.364C7.41496 16.604 7.54296 16.916 7.54296 17.3C7.54296 17.668 7.41496 17.98 7.15896 18.236C6.91896 18.492 6.62296 18.62 6.27096 18.62Z" fill="#1CD63D"/>
<path d="M27.4369 18.644C26.1569 18.644 24.9729 18.436 23.8849 18.02C22.8129 17.588 21.8769 16.988 21.0769 16.22C20.2929 15.452 19.6769 14.548 19.2289 13.508C18.7969 12.468 18.5809 11.332 18.5809 10.1C18.5809 8.868 18.7969 7.732 19.2289 6.692C19.6769 5.652 20.3009 4.748 21.1009 3.98C21.9009 3.212 22.8369 2.62 23.9089 2.204C24.9969 1.772 26.1809 1.556 27.4609 1.556C28.7409 1.556 29.9089 1.756 30.9649 2.156C32.0369 2.556 32.9489 3.164 33.7009 3.98L32.5969 5.108C31.8929 4.404 31.1169 3.9 30.2689 3.596C29.4209 3.292 28.5089 3.14 27.5329 3.14C26.4929 3.14 25.5329 3.316 24.6529 3.668C23.7889 4.004 23.0289 4.492 22.3729 5.132C21.7329 5.756 21.2289 6.492 20.8609 7.34C20.5089 8.172 20.3329 9.092 20.3329 10.1C20.3329 11.092 20.5089 12.012 20.8609 12.86C21.2289 13.708 21.7329 14.452 22.3729 15.092C23.0289 15.716 23.7889 16.204 24.6529 16.556C25.5329 16.892 26.4849 17.06 27.5089 17.06C28.4689 17.06 29.3729 16.916 30.2209 16.628C31.0849 16.34 31.8769 15.852 32.5969 15.164L33.6049 16.508C32.8049 17.212 31.8689 17.748 30.7969 18.116C29.7249 18.468 28.6049 18.644 27.4369 18.644ZM31.9009 16.292V10.1H33.6049V16.508L31.9009 16.292ZM51.9994 18.62C50.9274 18.62 49.9914 18.42 49.1914 18.02C48.3914 17.62 47.7674 17.02 47.3194 16.22C46.8874 15.42 46.6714 14.42 46.6714 13.22V5.9H48.3754V13.028C48.3754 14.372 48.7034 15.388 49.3594 16.076C50.0314 16.748 50.9674 17.084 52.1674 17.084C53.0474 17.084 53.8074 16.908 54.4474 16.556C55.1034 16.188 55.5994 15.66 55.9354 14.972C56.2874 14.284 56.4634 13.46 56.4634 12.5V5.9H58.1674V18.5H56.5354V15.044L56.7994 15.668C56.3994 16.596 55.7754 17.324 54.9274 17.852C54.0954 18.364 53.1194 18.62 51.9994 18.62ZM71.4364 18.5V5.9H73.1404V18.5H71.4364ZM72.3004 3.116C71.9484 3.116 71.6524 2.996 71.4124 2.756C71.1724 2.516 71.0524 2.228 71.0524 1.892C71.0524 1.556 71.1724 1.276 71.4124 1.052C71.6524 0.811999 71.9484 0.691999 72.3004 0.691999C72.6524 0.691999 72.9484 0.803999 73.1884 1.028C73.4284 1.252 73.5484 1.532 73.5484 1.868C73.5484 2.22 73.4284 2.516 73.1884 2.756C72.9644 2.996 72.6684 3.116 72.3004 3.116ZM86.4017 18.5V0.691999H88.1057V18.5H86.4017ZM106.383 18.62C105.183 18.62 104.103 18.348 103.143 17.804C102.199 17.26 101.455 16.508 100.911 15.548C100.367 14.572 100.095 13.452 100.095 12.188C100.095 10.908 100.367 9.788 100.911 8.828C101.455 7.868 102.199 7.124 103.143 6.596C104.103 6.052 105.183 5.78 106.383 5.78C107.487 5.78 108.471 6.028 109.335 6.524C110.215 7.02 110.911 7.748 111.423 8.708C111.951 9.652 112.215 10.812 112.215 12.188C112.215 13.548 111.959 14.708 111.447 15.668C110.935 16.628 110.239 17.364 109.359 17.876C108.495 18.372 107.503 18.62 106.383 18.62ZM106.503 17.108C107.399 17.108 108.199 16.908 108.903 16.508C109.623 16.092 110.183 15.516 110.583 14.78C110.999 14.028 111.207 13.164 111.207 12.188C111.207 11.196 110.999 10.332 110.583 9.596C110.183 8.86 109.623 8.292 108.903 7.892C108.199 7.476 107.399 7.268 106.503 7.268C105.623 7.268 104.831 7.476 104.127 7.892C103.423 8.292 102.863 8.86 102.447 9.596C102.031 10.332 101.823 11.196 101.823 12.188C101.823 13.164 102.031 14.028 102.447 14.78C102.863 15.516 103.423 16.092 104.127 16.508C104.831 16.908 105.623 17.108 106.503 17.108ZM111.255 18.5V14.708L111.423 12.164L111.183 9.62V0.691999H112.887V18.5H111.255Z" fill="#FBFBFB"/>
</svg>
